<?xml version="1.0" encoding="UTF-8" standalone="no"?>
<!DOCTYPE svg PUBLIC "-//W3C//DTD SVG 20010904//EN"
"http://www.w3.org/TR/2001/REC-SVG-20010904/DTD/svg10.dtd">
<!-- Created with Sodipodi ("http://www.sodipodi.com/") -->
<svg
   width="48pt"
   height="48pt"
   viewBox="0 0 257.001 256"
   overflow="visible"
   enable-background="new 0 0 257.001 256"
   xml:space="preserve"
   xmlns="http://www.w3.org/2000/svg"
   xmlns:xml="http://www.w3.org/XML/1998/namespace"
   xmlns:sodipodi="http://sodipodi.sourceforge.net/DTD/sodipodi-0.dtd"
   xmlns:xlink="http://www.w3.org/1999/xlink"
   id="svg153"
   sodipodi:version="0.32pre"
   sodipodi:docname="/home/cschalle/gnome-themes-extras/Lush/icons/scalable/stock/fileopen.svgz"
   sodipodi:docbase="/home/cschalle/gnome-themes-extras/Lush/icons/scalable/stock/">
  <defs
     id="defs230" />
  <sodipodi:namedview
     id="base" />
  <g
     id="Layer_2"
     stroke="#000000">
    <path
       fill="none"
       stroke="none"
       d="M256,256H0V0h256V256z"
       id="path155" />
  </g>
  <g
     id="Layer_1"
     stroke="#000000">
    <path
       opacity="0.2"
       stroke="none"
       d="M243.714,55.542l-0.346-0.062l-98.043-9.71c-10.36-1.319-25.365,8.329-28.034,14.872    l-9.994,21.909L21.659,82.5c-9.35-0.006-15.131,7.402-12.887,16.515l27.699,112.47c2.244,9.111,11.675,16.53,21.025,16.536    l152.452,0.091c7.919,0.003,13.26-5.321,13.349-12.487l12.207-79.729l21.157-64.013C259.076,64.573,253.268,57.243,243.714,55.542    z"
       id="path157" />
    <path
       stroke="none"
       d="M219.254,209.903c-1.122,7.32-7.341,12.443-13.892,11.44l-96.212-14.729    c-6.552-1.003-10.954-7.751-9.833-15.071L74.128,105.39c1.122-7.321,150.064-7.04,150.064-7.04    c6.551,1.003,10.953,7.751,9.833,15.073L219.254,209.903z"
       id="path158" />
    <path
       fill="#6AC29F"
       stroke="none"
       d="M77.153,108.39c2.203,7.534,24.284,83.058,24.284,83.058l-0.167,1.096    c-0.118,0.776-0.145,1.551-0.083,2.308c0.135,1.646,0.688,3.202,1.613,4.464c0.744,1.013,2.063,2.286,4.117,2.601l96.212,14.73    c3.813,0.583,7.49-2.672,8.193-7.256l14.77-96.479c0.121-0.791,0.146-1.57,0.085-2.322c-0.29-3.541-2.506-6.433-5.573-6.995    C159.386,103.49,92.741,105.241,77.153,108.39z"
       id="path159" />
    <linearGradient
       id="XMLID_1_"
       gradientUnits="userSpaceOnUse"
       x1="151.665"
       y1="111.3379"
       x2="151.665"
       y2="154.0038">
      <stop
         offset="0"
         style="stop-color:#FFFFFF"
         id="stop161" />
      <stop
         offset="1"
         style="stop-color:#000000"
         id="stop162" />
    </linearGradient>
    <path
       opacity="0.1"
       fill="url(#XMLID_1_)"
       stroke="none"
       adobe-blending-mode="multiply"
       d="M77.153,108.39    c2.203,7.534,24.284,83.058,24.284,83.058l-0.167,1.096c-0.118,0.776-0.145,1.551-0.083,2.308    c0.135,1.646,0.688,3.202,1.613,4.464c0.744,1.013,2.063,2.286,4.117,2.601l96.212,14.73c3.813,0.583,7.49-2.672,8.193-7.256    l14.77-96.479c0.121-0.791,0.146-1.57,0.085-2.322c-0.29-3.541-2.506-6.433-5.573-6.995    C159.386,103.49,92.741,105.241,77.153,108.39z"
       id="path166" />
    <path
       fill="#91D3AE"
       stroke="none"
       d="M226.177,110.588c-0.29-3.541-2.506-6.433-5.573-6.995    c-10.695-0.018-21.556,0.021-32.279,0.113l-5.632,4.182c0,0,25.751-4.111,29.78,4.255c4.026,8.366,3.554,27.133,3.554,27.133    l-1,36.872l1.199,1.203l9.866-64.442C226.213,112.119,226.237,111.34,226.177,110.588z"
       id="path167" />
    <path
       stroke="none"
       d="M239.368,49.479l-98.065-9.712l0.7,0.097c-10.595-1.886-26.671,8.528-28.879,15.209l0.182-0.464    L59.91,171.668l-0.077,0.234c-2.416,7.309,3.393,14.639,12.947,16.342l114.363,20.359c9.554,1.701,19.292-2.861,21.707-10.17    l43.812-132.552c2.415-7.309-3.394-14.639-12.947-16.34L239.368,49.479z"
       id="path168" />
    <linearGradient
       id="XMLID_2_"
       gradientUnits="userSpaceOnUse"
       x1="136.5381"
       y1="53.5073"
       x2="161.4812"
       y2="141.8133">
      <stop
         offset="0"
         style="stop-color:#D4D4D4"
         id="stop170" />
      <stop
         offset="1"
         style="stop-color:#F0F0F0"
         id="stop171" />
    </linearGradient>
    <path
       fill="url(#XMLID_2_)"
       stroke="none"
       d="M65.25,172.164c-1.452,4.396,2.026,8.781,7.769,9.805l114.363,20.361    c5.742,1.023,11.573-1.707,13.025-6.102l43.81-132.551c1.451-4.393-2.026-8.783-7.768-9.805l-97.713-9.677    c-5.741-1.022-18.743,6.749-20.194,11.141L65.25,172.164z"
       id="path175" />
    <path
       fill="none"
       stroke="none"
       d="M67.049,174.949l53.29-116.828c1.452-4.393,14.456-12.164,20.196-11.142l100.029,8.409    c-1.172-0.707-2.558-1.239-4.116-1.517l-97.713-9.677c-5.741-1.022-18.743,6.749-20.194,11.141L65.25,172.164    c-0.827,2.506-0.048,5.008,1.837,6.889C66.63,177.758,66.585,176.355,67.049,174.949z"
       id="path176" />
    <g
       id="g177" />
    <path
       fill="#C2C2C2"
       stroke="none"
       d="M195.692,191.281c-1.452,4.393-7.283,7.127-13.025,6.102l-76.894-9.584l81.608,14.531    c5.742,1.023,11.573-1.707,13.025-6.102l39.78-120.363L195.692,191.281z"
       id="path178" />
    <radialGradient
       id="XMLID_3_"
       cx="158.9375"
       cy="62.1821"
       r="6.3306"
       fx="158.9375"
       fy="62.1821"
       gradientTransform="matrix(0.8964 0.0346 -0.3107 1.1036 32.3881 -10.5311)"
       gradientUnits="userSpaceOnUse">
      <stop
         offset="0.8595"
         style="stop-color:#C2C2C2"
         id="stop180" />
      <stop
         offset="1"
         style="stop-color:#000000"
         id="stop181" />
    </radialGradient>
    <path
       fill="url(#XMLID_3_)"
       stroke="none"
       d="M149.231,61.785c-1.069,3.502,0.563,6.431,3.644,6.542s6.443-2.642,7.512-6.145    c1.067-3.503-0.564-6.432-3.644-6.541C153.662,55.53,150.299,58.281,149.231,61.785z"
       id="path185" />
    <radialGradient
       id="XMLID_4_"
       cx="210.1006"
       cy="65.8433"
       r="6.9027"
       fx="210.1006"
       fy="65.8433"
       gradientTransform="matrix(0.8964 0.0346 -0.3107 1.1036 32.3881 -10.5311)"
       gradientUnits="userSpaceOnUse">
      <stop
         offset="0.8595"
         style="stop-color:#C2C2C2"
         id="stop187" />
      <stop
         offset="1"
         style="stop-color:#000000"
         id="stop188" />
    </radialGradient>
    <path
       fill="url(#XMLID_4_)"
       stroke="none"
       d="M193.386,67.431c-1.165,3.819,0.613,7.013,3.973,7.133    c3.359,0.12,7.027-2.88,8.191-6.7c1.164-3.82-0.616-7.013-3.974-7.132C198.217,60.612,194.55,63.611,193.386,67.431z"
       id="path192" />
    <path
       stroke="none"
       d="M151.357,54.805c0-10.077,6.26-18.244,13.981-18.244c3.187,0,5.593,6.146,7.942,8.485    c-2.215-6.262-3.912-15.699-11.048-15.274c-7.246,0.431-13.137,8.928-13.137,19.941c0,6.022,1.762,11.416,4.54,15.072    C152.197,61.917,151.357,58.489,151.357,54.805z"
       id="path193" />
    <path
       stroke="none"
       d="M195.483,59.048c0-10.077,6.261-18.244,13.983-18.244c3.186,0,5.591,6.145,7.941,8.485    c-2.215-6.262-3.911-15.699-11.049-15.275c-7.245,0.431-13.135,8.929-13.135,19.942c0,6.021,1.76,11.415,4.538,15.072    C196.323,66.16,195.483,62.732,195.483,59.048z"
       id="path194" />
    <path
       stroke="none"
       d="M17.659,76.5c-9.35-0.006-15.131,7.402-12.887,16.515l27.699,112.47    c2.244,9.111,11.675,16.53,21.025,16.536l152.452,0.091c9.347,0.004,15.131-7.403,12.888-16.515l-27.7-112.471    c-2.242-9.112-11.677-16.53-21.023-16.535L17.659,76.5z"
       id="path195" />
    <path
       opacity="0.2"
       stroke="none"
       d="M178.112,76.591l-69.248-0.041l-0.002,0.004l61.25,0.037    c9.347,0.005,18.781,7.422,21.023,16.535l18.509,75.152l4.584-13.87l-15.093-61.282C196.894,84.013,187.459,76.596,178.112,76.591    z"
       id="path196" />
    <path
       stroke="none"
       d="M42.522,58.752c-8.638-0.025-13.952,7.039-11.848,15.749l2.448,10.129    c2.104,8.71,10.846,15.817,19.483,15.843l22.484,0.068c8.639,0.025,13.954-7.039,11.849-15.75l-2.447-10.128    c-2.105-8.709-10.847-15.817-19.485-15.843L42.522,58.752z"
       id="path197" />
    <linearGradient
       id="XMLID_5_"
       gradientUnits="userSpaceOnUse"
       x1="57.7627"
       y1="70.7202"
       x2="57.0962"
       y2="84.72">
      <stop
         offset="0"
         style="stop-color:#CFECCF"
         id="stop199" />
      <stop
         offset="1"
         style="stop-color:#91D290"
         id="stop200" />
    </linearGradient>
    <path
       fill="url(#XMLID_5_)"
       stroke="none"
       d="M79.316,82.402c1.263,5.233-1.918,9.464-7.111,9.448l-22.483-0.067    c-5.191-0.016-10.424-4.271-11.689-9.506l-2.45-10.128c-1.264-5.235,1.919-9.465,7.111-9.449l22.481,0.067    c5.193,0.016,10.426,4.271,11.691,9.506L79.316,82.402z"
       id="path204" />
    <path
       opacity="0.6"
       fill="#FFFFFF"
       stroke="none"
       d="M65.554,62.498l-22.917-0.179c-5.292-0.041-8.521,6.154-7.212,13.839    l0.79,4.638c-1.31-7.684,1.921-13.881,7.212-13.839l22.918,0.182c5.292,0.041,10.641,6.304,11.95,13.989l-0.79-4.638    C76.196,68.802,70.846,62.541,65.554,62.498z"
       id="path205" />
    <linearGradient
       id="XMLID_6_"
       gradientUnits="userSpaceOnUse"
       x1="110.2666"
       y1="117.6689"
       x2="110.2666"
       y2="269.008">
      <stop
         offset="0"
         style="stop-color:#CFECCF"
         id="stop207" />
      <stop
         offset="1"
         style="stop-color:#91D290"
         id="stop208" />
    </linearGradient>
    <path
       fill="url(#XMLID_6_)"
       stroke="none"
       d="M211.022,204.558c1.392,5.642-2.265,10.217-8.165,10.213L50.405,214.68    c-5.899-0.004-11.808-4.583-13.198-10.225L9.509,91.984c-1.389-5.644,2.266-10.215,8.167-10.212l152.454,0.091    c5.898,0.002,11.808,4.581,13.196,10.224L211.022,204.558z"
       id="path212" />
    <linearGradient
       id="XMLID_7_"
       gradientUnits="userSpaceOnUse"
       x1="110.2666"
       y1="206.6709"
       x2="110.2666"
       y2="218.6674">
      <stop
         offset="0"
         style="stop-color:#FFFFFF"
         id="stop214" />
      <stop
         offset="1"
         style="stop-color:#15807D"
         id="stop215" />
    </linearGradient>
    <path
       opacity="0.5"
       fill="url(#XMLID_7_)"
       stroke="none"
       adobe-blending-mode="multiply"
       d="M211.022,204.558    c1.392,5.642-2.265,10.217-8.165,10.213L50.405,214.68c-5.899-0.004-11.808-4.583-13.198-10.225L9.509,91.984    c-1.389-5.644,2.266-10.215,8.167-10.212l152.454,0.091c5.898,0.002,11.808,4.581,13.196,10.224L211.022,204.558z"
       id="path219" />
    <radialGradient
       id="XMLID_8_"
       cx="165.3779"
       cy="92.6641"
       r="128.6971"
       fx="165.3779"
       fy="92.6641"
       gradientUnits="userSpaceOnUse">
      <stop
         offset="0"
         style="stop-color:#FFFFFF"
         id="stop221" />
      <stop
         offset="1"
         style="stop-color:#000000"
         id="stop222" />
    </radialGradient>
    <path
       opacity="0.3"
       fill="url(#XMLID_8_)"
       stroke="none"
       adobe-blending-mode="screen"
       d="M17.668,86.772    c-1.312,0-2.348,0.4-2.918,1.128c-0.354,0.451-0.535,1.049-0.535,1.74c0,0.36,0.049,0.746,0.148,1.149    c0,0.002,27.699,112.47,27.699,112.47c0.842,3.417,4.742,6.418,8.346,6.42l152.452,0.091c1.313,0.001,2.351-0.399,2.922-1.129    c0.539-0.687,0.676-1.712,0.386-2.887L178.471,93.284c-0.842-3.419-4.74-6.418-8.344-6.42L17.672,86.772    C17.671,86.772,17.67,86.772,17.668,86.772z"
       id="path226" />
    <path
       opacity="0.8"
       fill="#FFFFFF"
       stroke="none"
       d="M20.288,100.247c-1.391-5.644,2.265-10.215,8.165-10.212l146.288-7.259    c-1.481-0.58-3.046-0.911-4.611-0.912L17.675,81.772c-5.9-0.003-9.555,4.568-8.167,10.212l27.223,110.538L20.288,100.247z"
       id="path227" />
    <path
       fill="#2BA475"
       stroke="none"
       d="M146.277,214.867l55.949-0.045c6.004-0.005,9.731-4.586,8.324-10.226l-19.654-78.857    l0.621,4.661c0,0,11.386,53.259,12.247,57.786c0.858,4.525,2.438,14.112-2.034,19.976    C199.459,211.139,172.38,213.383,146.277,214.867z"
       id="path228" />
  </g>
</svg>
